<svg xmlns="http://www.w3.org/2000/svg" viewBox="0 0 16 16" aria-hidden="true">
  <path
    d="M8.8 0H14v11.2c0 1.04-.23 1.94-.7 2.7-.46.75-1.1 1.33-1.93 1.72-.82.39-1.78.58-2.86.58-.98 0-1.87-.17-2.67-.5-.79-.35-1.42-.88-1.88-1.6-.46-.72-.69-1.6-.69-2.65h3.6c0 .43.09.79.27 1.08.18.29.43.51.75.66.32.15.7.23 1.12.23.43 0 .8-.09 1.11-.27.31-.18.55-.45.71-.8.16-.35.24-.77.24-1.25V0z"
  />
  <style>
    path { fill: #000; }
    @media (prefers-color-scheme: dark) { path { fill: #fff; } }
  </style>
</svg>
